<svg xmlns="http://www.w3.org/2000/svg" xmlns:xlink="http://www.w3.org/1999/xlink" width="500" zoomAndPan="magnify" viewBox="0 0 375 374.999991" height="500" preserveAspectRatio="xMidYMid meet" version="1.2"><defs><clipPath id="9ccebb7348"><path d="M 56.539062 43 L 337.734375 43 L 337.734375 310 L 56.539062 310 Z M 56.539062 43 "/></clipPath><clipPath id="79a2a8d34b"><path d="M 317.875 122.949219 C 306.238281 96.558594 289.863281 70.03125 263.335938 56.363281 C 260.898438 55.144531 258.328125 53.929688 255.757812 52.980469 C 243.171875 47.433594 229.90625 44.453125 216.238281 43.914062 C 214.34375 43.640625 212.3125 43.371094 210.285156 43.234375 C 197.289062 42.289062 185.515625 44.996094 174.691406 50.003906 C 154.929688 56.09375 135.710938 65.835938 119.472656 77.882812 C 98.222656 93.851562 80.628906 114.421875 70.074219 139.054688 C 63.847656 153.535156 60.328125 168.695312 58.433594 184.394531 C 56.40625 200.632812 55.324219 217.6875 58.839844 233.65625 C 65.066406 261.535156 88.074219 283.730469 113.113281 295.773438 C 139.367188 308.363281 168.734375 312.152344 197.425781 308.363281 C 227.878906 304.300781 256.839844 292.257812 282.824219 276.015625 C 306.238281 261.398438 328.839844 241.640625 335.335938 213.625 C 342.507812 182.363281 330.191406 151.101562 317.875 122.949219 Z M 317.875 122.949219 "/></clipPath><clipPath id="0f1ef65c72"><path d="M 0.539062 0 L 281.734375 0 L 281.734375 266.839844 L 0.539062 266.839844 Z M 0.539062 0 "/></clipPath><clipPath id="ac83859e62"><path d="M 261.875 79.949219 C 250.238281 53.558594 233.863281 27.03125 207.335938 13.363281 C 204.898438 12.144531 202.328125 10.929688 199.757812 9.980469 C 187.171875 4.433594 173.90625 1.453125 160.238281 0.914062 C 158.34375 0.640625 156.3125 0.371094 154.285156 0.234375 C 141.289062 -0.710938 129.515625 1.996094 118.691406 7.003906 C 98.929688 13.09375 79.710938 22.835938 63.472656 34.882812 C 42.222656 50.851562 24.628906 71.421875 14.074219 96.054688 C 7.847656 110.535156 4.328125 125.695312 2.433594 141.394531 C 0.40625 157.632812 -0.675781 174.6875 2.839844 190.65625 C 9.066406 218.535156 32.074219 240.730469 57.113281 252.773438 C 83.367188 265.363281 112.734375 269.152344 141.425781 265.363281 C 171.878906 261.300781 200.839844 249.257812 226.824219 233.015625 C 250.238281 218.398438 272.839844 198.640625 279.335938 170.625 C 286.507812 139.363281 274.191406 108.101562 261.875 79.949219 Z M 261.875 79.949219 "/></clipPath><clipPath id="00ab63a21c"><rect x="0" width="282" y="0" height="267"/></clipPath><clipPath id="d02f787ea4"><path d="M 56.539062 43.101562 L 337.789062 43.101562 L 337.789062 309.351562 L 56.539062 309.351562 Z M 56.539062 43.101562 "/></clipPath><clipPath id="965ada9899"><path d="M 317.875 122.949219 C 306.234375 96.558594 289.859375 70.035156 263.332031 56.363281 C 260.898438 55.148438 258.324219 53.929688 255.753906 52.980469 C 243.167969 47.433594 229.90625 44.457031 216.238281 43.914062 C 214.34375 43.644531 212.3125 43.371094 210.28125 43.238281 C 197.289062 42.289062 185.515625 44.996094 174.6875 50.003906 C 154.929688 56.09375 135.710938 65.839844 119.472656 77.882812 C 98.222656 93.851562 80.628906 114.421875 70.074219 139.054688 C 63.847656 153.535156 60.328125 168.695312 58.433594 184.390625 C 56.40625 200.632812 55.324219 217.683594 58.839844 233.65625 C 65.066406 261.535156 88.074219 283.730469 113.109375 295.773438 C 139.367188 308.359375 168.734375 312.148438 197.425781 308.359375 C 227.875 304.300781 256.835938 292.253906 282.820312 276.015625 C 306.234375 261.398438 328.835938 241.640625 335.332031 213.625 C 342.503906 182.363281 330.1875 151.101562 317.875 122.949219 Z M 317.875 122.949219 "/></clipPath><clipPath id="b832c6e49a"><path d="M 180 211 L 195 211 L 195 241 L 180 241 Z M 180 211 "/></clipPath><clipPath id="b12aa2d598"><path d="M 175.664062 214.722656 L 194.738281 211.460938 L 199.242188 237.777344 L 180.167969 241.042969 Z M 175.664062 214.722656 "/></clipPath><clipPath id="f9b724b587"><path d="M 180.0625 239.945312 C 182.488281 231.757812 187.65625 221.78125 189.996094 217.464844 C 191.34375 215.023438 192.582031 212.476562 193.46875 211.878906 C 193.757812 211.648438 194.046875 211.597656 194.273438 211.710938 C 194.53125 211.816406 194.882812 212.292969 194.898438 212.558594 C 194.9375 212.792969 194.730469 213.15625 194.515625 213.285156 C 194.300781 213.4375 193.917969 213.476562 193.691406 213.363281 C 193.46875 213.28125 193.234375 212.964844 193.164062 212.738281 C 193.105469 212.566406 193.125 212.324219 193.222656 212.1875 C 193.335938 211.988281 193.679688 211.722656 193.882812 211.6875 C 194.082031 211.625 194.292969 211.648438 194.433594 211.773438 C 194.644531 211.945312 194.914062 212.289062 194.898438 212.738281 C 194.824219 213.859375 192.808594 216.058594 191.601562 218.265625 C 189.882812 221.339844 187.410156 226.28125 185.820312 229.570312 C 184.605469 232.082031 183.453125 234.253906 182.753906 236.285156 C 182.207031 237.8125 182.238281 239.902344 181.660156 240.539062 C 181.414062 240.851562 181.007812 240.921875 180.734375 240.90625 C 180.519531 240.882812 180.339844 240.707031 180.222656 240.546875 C 180.109375 240.386719 180.0625 239.945312 180.0625 239.945312 "/></clipPath><clipPath id="f195e270e5"><path d="M 0 0.441406 L 15 0.441406 L 15 29.960938 L 0 29.960938 Z M 0 0.441406 "/></clipPath><clipPath id="2fe90eca9d"><path d="M -4.335938 3.722656 L 14.738281 0.460938 L 19.242188 26.777344 L 0.167969 30.042969 Z M -4.335938 3.722656 "/></clipPath><clipPath id="5aedd405b2"><path d="M 0.0625 28.945312 C 2.488281 20.757812 7.65625 10.78125 9.996094 6.464844 C 11.34375 4.023438 12.582031 1.476562 13.46875 0.878906 C 13.757812 0.648438 14.046875 0.597656 14.273438 0.710938 C 14.53125 0.816406 14.882812 1.292969 14.898438 1.558594 C 14.9375 1.792969 14.730469 2.15625 14.515625 2.285156 C 14.300781 2.4375 13.917969 2.476562 13.691406 2.363281 C 13.46875 2.28125 13.234375 1.964844 13.164062 1.738281 C 13.105469 1.566406 13.125 1.324219 13.222656 1.1875 C 13.335938 0.988281 13.679688 0.722656 13.882812 0.6875 C 14.082031 0.625 14.292969 0.648438 14.433594 0.773438 C 14.644531 0.945312 14.914062 1.289062 14.898438 1.738281 C 14.824219 2.859375 12.808594 5.058594 11.601562 7.265625 C 9.882812 10.339844 7.410156 15.28125 5.820312 18.570312 C 4.605469 21.082031 3.453125 23.253906 2.753906 25.285156 C 2.207031 26.8125 2.238281 28.902344 1.660156 29.539062 C 1.414062 29.851562 1.007812 29.921875 0.734375 29.90625 C 0.519531 29.882812 0.339844 29.707031 0.222656 29.546875 C 0.109375 29.386719 0.0625 28.945312 0.0625 28.945312 "/></clipPath><clipPath id="cface91d62"><rect x="0" width="15" y="0" height="30"/></clipPath><clipPath id="a4ef9a3676"><path d="M 136.707031 217 L 161.554688 217 L 161.554688 239.402344 L 136.707031 239.402344 Z M 136.707031 217 "/></clipPath><clipPath id="8c3471c5fb"><path d="M 138.183594 232.707031 C 157.382812 216.957031 157.984375 217.03125 158.734375 217.183594 C 159.410156 217.40625 160.234375 217.933594 160.683594 218.457031 C 161.207031 219.058594 161.507812 219.957031 161.507812 220.707031 C 161.582031 221.457031 161.359375 222.433594 160.832031 223.03125 C 160.160156 223.78125 158.734375 224.609375 157.683594 224.609375 C 156.632812 224.53125 155.207031 223.632812 154.609375 222.808594 C 154.160156 222.207031 154.007812 221.234375 154.007812 220.484375 C 154.082031 219.734375 154.457031 218.90625 154.984375 218.308594 C 155.507812 217.78125 156.332031 217.257812 157.082031 217.109375 C 157.832031 217.03125 158.808594 217.109375 159.484375 217.484375 C 160.160156 217.78125 160.832031 218.457031 161.132812 219.207031 C 161.507812 220.109375 161.734375 221.308594 161.058594 222.65625 C 159.257812 226.40625 146.207031 236.683594 142.832031 238.558594 C 141.707031 239.234375 141.109375 239.457031 140.285156 239.382812 C 139.308594 239.234375 137.882812 238.40625 137.285156 237.582031 C 136.832031 236.90625 136.683594 235.78125 136.832031 234.957031 C 136.984375 234.132812 138.183594 232.707031 138.183594 232.707031 "/></clipPath><clipPath id="3d0db92e14"><path d="M 0.707031 0 L 25.554688 0 L 25.554688 22.402344 L 0.707031 22.402344 Z M 0.707031 0 "/></clipPath><clipPath id="8f9ddc1256"><path d="M 2.183594 15.707031 C 21.382812 -0.0429688 21.984375 0.03125 22.734375 0.183594 C 23.410156 0.40625 24.234375 0.933594 24.683594 1.457031 C 25.207031 2.058594 25.507812 2.957031 25.507812 3.707031 C 25.582031 4.457031 25.359375 5.433594 24.832031 6.03125 C 24.160156 6.78125 22.734375 7.609375 21.683594 7.609375 C 20.632812 7.53125 19.207031 6.632812 18.609375 5.808594 C 18.160156 5.207031 18.007812 4.234375 18.007812 3.484375 C 18.082031 2.734375 18.457031 1.90625 18.984375 1.308594 C 19.507812 0.78125 20.332031 0.257812 21.082031 0.109375 C 21.832031 0.03125 22.808594 0.109375 23.484375 0.484375 C 24.160156 0.78125 24.832031 1.457031 25.132812 2.207031 C 25.507812 3.109375 25.734375 4.308594 25.058594 5.65625 C 23.257812 9.40625 10.207031 19.683594 6.832031 21.558594 C 5.707031 22.234375 5.109375 22.457031 4.285156 22.382812 C 3.308594 22.234375 1.882812 21.40625 1.285156 20.582031 C 0.832031 19.90625 0.683594 18.78125 0.832031 17.957031 C 0.984375 17.132812 2.183594 15.707031 2.183594 15.707031 "/></clipPath><clipPath id="815476161c"><rect x="0" width="26" y="0" height="23"/></clipPath><clipPath id="bcfee71130"><path d="M 173.078125 210.628906 L 197.757812 210.628906 L 197.757812 254.53125 L 173.078125 254.53125 Z M 173.078125 210.628906 "/></clipPath><clipPath id="2a6acd3463"><path d="M 173.230469 249.898438 C 180.503906 229.125 188.230469 215.476562 190.855469 212.398438 C 191.679688 211.5 192.054688 211.199219 192.804688 210.898438 C 193.480469 210.675781 194.453125 210.601562 195.128906 210.898438 C 196.03125 211.273438 197.230469 212.550781 197.605469 213.449219 C 197.828125 214.199219 197.753906 215.175781 197.453125 215.851562 C 197.15625 216.601562 196.628906 217.351562 195.878906 217.726562 C 195.054688 218.101562 193.328125 218.324219 192.429688 217.875 C 191.453125 217.425781 190.480469 216 190.253906 215.101562 C 190.105469 214.273438 190.328125 213.375 190.628906 212.699219 C 191.003906 212.023438 191.605469 211.351562 192.429688 211.050781 C 193.328125 210.75 195.054688 210.824219 195.878906 211.273438 C 196.628906 211.648438 197.15625 212.398438 197.453125 213.074219 C 197.753906 213.824219 197.828125 214.351562 197.605469 215.476562 C 196.703125 219.300781 187.628906 231.824219 184.480469 238.800781 C 182.15625 244.125 181.480469 251.175781 179.679688 253.273438 C 178.929688 254.175781 178.105469 254.398438 177.28125 254.476562 C 176.453125 254.625 175.40625 254.324219 174.730469 253.875 C 174.054688 253.351562 173.453125 252.375 173.230469 251.625 C 173.003906 251.023438 173.230469 249.898438 173.230469 249.898438 "/></clipPath><clipPath id="2b014f1094"><path d="M 0.078125 0.628906 L 24.757812 0.628906 L 24.757812 44.53125 L 0.078125 44.53125 Z M 0.078125 0.628906 "/></clipPath><clipPath id="073dbae924"><path d="M 0.230469 39.898438 C 7.503906 19.125 15.230469 5.476562 17.855469 2.398438 C 18.679688 1.5 19.054688 1.199219 19.804688 0.898438 C 20.480469 0.675781 21.453125 0.601562 22.128906 0.898438 C 23.03125 1.273438 24.230469 2.550781 24.605469 3.449219 C 24.828125 4.199219 24.753906 5.175781 24.453125 5.851562 C 24.15625 6.601562 23.628906 7.351562 22.878906 7.726562 C 22.054688 8.101562 20.328125 8.324219 19.429688 7.875 C 18.453125 7.425781 17.480469 6 17.253906 5.101562 C 17.105469 4.273438 17.328125 3.375 17.628906 2.699219 C 18.003906 2.023438 18.605469 1.351562 19.429688 1.050781 C 20.328125 0.75 22.054688 0.824219 22.878906 1.273438 C 23.628906 1.648438 24.15625 2.398438 24.453125 3.074219 C 24.753906 3.824219 24.828125 4.351562 24.605469 5.476562 C 23.703125 9.300781 14.628906 21.824219 11.480469 28.800781 C 9.15625 34.125 8.480469 41.175781 6.679688 43.273438 C 5.929688 44.175781 5.105469 44.398438 4.28125 44.476562 C 3.453125 44.625 2.40625 44.324219 1.730469 43.875 C 1.054688 43.351562 0.453125 42.375 0.230469 41.625 C 0.00390625 41.023438 0.230469 39.898438 0.230469 39.898438 "/></clipPath><clipPath id="8e21688a52"><rect x="0" width="25" y="0" height="45"/></clipPath><clipPath id="39c59f6c2b"><path d="M 205.0625 216.734375 L 235.21875 216.734375 L 235.21875 252.246094 L 205.0625 252.246094 Z M 205.0625 216.734375 "/></clipPath><clipPath id="44ab5e61d3"><path d="M 209.753906 216.988281 C 222.65625 220.964844 227.15625 222.988281 229.628906 224.265625 C 231.128906 225.015625 232.179688 225.316406 233.003906 226.363281 C 234.054688 227.566406 235.328125 229.964844 235.105469 231.390625 C 234.953125 232.664062 233.53125 233.714844 232.480469 234.691406 C 231.429688 235.738281 230.304688 235.964844 228.65625 237.238281 C 225.054688 240.089844 215.679688 250.964844 212.53125 252.015625 C 211.480469 252.390625 210.878906 252.164062 210.128906 251.863281 C 209.453125 251.566406 208.78125 250.964844 208.40625 250.289062 C 207.953125 249.613281 207.804688 248.640625 207.878906 247.890625 C 207.953125 247.140625 208.328125 246.316406 208.929688 245.789062 C 209.679688 245.113281 211.253906 244.515625 212.304688 244.738281 C 213.28125 244.890625 214.628906 245.941406 215.078125 246.914062 C 215.453125 247.816406 215.230469 249.539062 214.78125 250.363281 C 214.40625 251.113281 213.65625 251.640625 212.90625 251.941406 C 212.230469 252.164062 211.253906 252.238281 210.578125 252.015625 C 209.828125 251.789062 209.003906 251.265625 208.554688 250.589844 C 208.105469 249.765625 207.65625 248.488281 208.105469 247.140625 C 209.003906 244.289062 215.605469 238.964844 218.605469 236.113281 C 220.78125 234.015625 222.355469 232.363281 224.304688 231.089844 C 225.953125 230.113281 228.503906 228.464844 229.328125 228.988281 C 230.003906 229.441406 230.230469 232.589844 229.554688 232.964844 C 228.65625 233.566406 225.355469 230.339844 222.355469 229.066406 C 218.15625 227.113281 208.554688 225.316406 206.304688 223.363281 C 205.40625 222.613281 205.179688 221.789062 205.105469 220.964844 C 205.03125 220.140625 205.328125 219.089844 205.78125 218.414062 C 206.230469 217.738281 207.28125 217.140625 208.03125 216.914062 C 208.628906 216.765625 209.753906 216.988281 209.753906 216.988281 "/></clipPath><clipPath id="ccd89da8b5"><path d="M 0.0625 0.734375 L 30.21875 0.734375 L 30.21875 36.246094 L 0.0625 36.246094 Z M 0.0625 0.734375 "/></clipPath><clipPath id="b6fea57154"><path d="M 4.753906 0.988281 C 17.65625 4.964844 22.15625 6.988281 24.628906 8.265625 C 26.128906 9.015625 27.179688 9.316406 28.003906 10.363281 C 29.054688 11.566406 30.328125 13.964844 30.105469 15.390625 C 29.953125 16.664062 28.53125 17.714844 27.480469 18.691406 C 26.429688 19.738281 25.304688 19.964844 23.65625 21.238281 C 20.054688 24.089844 10.679688 34.964844 7.53125 36.015625 C 6.480469 36.390625 5.878906 36.164062 5.128906 35.863281 C 4.453125 35.566406 3.78125 34.964844 3.40625 34.289062 C 2.953125 33.613281 2.804688 32.640625 2.878906 31.890625 C 2.953125 31.140625 3.328125 30.316406 3.929688 29.789062 C 4.679688 29.113281 6.253906 28.515625 7.304688 28.738281 C 8.28125 28.890625 9.628906 29.941406 10.078125 30.914062 C 10.453125 31.816406 10.230469 33.539062 9.78125 34.363281 C 9.40625 35.113281 8.65625 35.640625 7.90625 35.941406 C 7.230469 36.164062 6.253906 36.238281 5.578125 36.015625 C 4.828125 35.789062 4.003906 35.265625 3.554688 34.589844 C 3.105469 33.765625 2.65625 32.488281 3.105469 31.140625 C 4.003906 28.289062 10.605469 22.964844 13.605469 20.113281 C 15.78125 18.015625 17.355469 16.363281 19.304688 15.089844 C 20.953125 14.113281 23.503906 12.464844 24.328125 12.988281 C 25.003906 13.441406 25.230469 16.589844 24.554688 16.964844 C 23.65625 17.566406 20.355469 14.339844 17.355469 13.066406 C 13.15625 11.113281 3.554688 9.316406 1.304688 7.363281 C 0.40625 6.613281 0.179688 5.789062 0.105469 4.964844 C 0.03125 4.140625 0.328125 3.089844 0.78125 2.414062 C 1.230469 1.738281 2.28125 1.140625 3.03125 0.914062 C 3.628906 0.765625 4.753906 0.988281 4.753906 0.988281 "/></clipPath><clipPath id="9e3fb8d648"><rect x="0" width="31" y="0" height="37"/></clipPath><clipPath id="a693476430"><path d="M 136.65625 235.640625 L 165.714844 235.640625 L 165.714844 253.882812 L 136.65625 253.882812 Z M 136.65625 235.640625 "/></clipPath><clipPath id="44b0ce9b49"><path d="M 141.410156 235.726562 C 155.808594 241.199219 162.332031 245.101562 164.285156 247.125 C 165.109375 248.023438 165.484375 248.699219 165.632812 249.449219 C 165.785156 250.050781 165.707031 250.648438 165.484375 251.25 C 165.183594 251.925781 164.507812 252.898438 163.757812 253.273438 C 163.007812 253.648438 161.882812 253.800781 161.132812 253.648438 C 160.535156 253.574219 159.933594 253.425781 159.484375 252.898438 C 158.882812 252 158.433594 248.773438 158.957031 247.648438 C 159.332031 246.976562 160.234375 246.601562 160.984375 246.375 C 161.734375 246.226562 162.707031 246.300781 163.382812 246.523438 C 164.058594 246.824219 164.808594 247.5 165.183594 248.175781 C 165.558594 248.773438 165.785156 249.675781 165.632812 250.5 C 165.410156 251.476562 164.433594 252.824219 163.609375 253.351562 C 162.933594 253.800781 161.957031 253.875 161.207031 253.726562 C 160.457031 253.574219 159.632812 253.199219 159.109375 252.523438 C 158.582031 251.773438 158.058594 250.125 158.285156 249.148438 C 158.507812 248.101562 159.632812 246.898438 160.609375 246.523438 C 161.582031 246.148438 163.234375 246.449219 164.058594 246.976562 C 164.734375 247.351562 165.257812 248.175781 165.484375 248.851562 C 165.707031 249.601562 165.558594 251.25 165.410156 251.25 C 165.257812 251.324219 164.132812 247.199219 164.285156 247.125 C 164.433594 247.050781 165.484375 248.625 165.632812 249.449219 C 165.785156 250.273438 165.484375 251.324219 165.035156 252.074219 C 164.582031 252.75 163.683594 253.351562 162.933594 253.648438 C 162.332031 253.800781 161.957031 253.875 161.132812 253.648438 C 158.808594 253.050781 152.808594 248.175781 148.757812 246.148438 C 145.007812 244.351562 139.382812 243.300781 137.734375 241.949219 C 137.132812 241.425781 136.984375 241.050781 136.832031 240.449219 C 136.609375 239.699219 136.609375 238.574219 136.910156 237.824219 C 137.285156 237 138.035156 236.25 138.785156 235.875 C 139.535156 235.574219 141.410156 235.726562 141.410156 235.726562 "/></clipPath><clipPath id="0b7da66add"><path d="M 0.65625 0.640625 L 29.714844 0.640625 L 29.714844 18.882812 L 0.65625 18.882812 Z M 0.65625 0.640625 "/></clipPath><clipPath id="33905e9ce7"><path d="M 5.410156 0.726562 C 19.808594 6.199219 26.332031 10.101562 28.285156 12.125 C 29.109375 13.023438 29.484375 13.699219 29.632812 14.449219 C 29.785156 15.050781 29.707031 15.648438 29.484375 16.25 C 29.183594 16.925781 28.507812 17.898438 27.757812 18.273438 C 27.007812 18.648438 25.882812 18.800781 25.132812 18.648438 C 24.535156 18.574219 23.933594 18.425781 23.484375 17.898438 C 22.882812 17 22.433594 13.773438 22.957031 12.648438 C 23.332031 11.976562 24.234375 11.601562 24.984375 11.375 C 25.734375 11.226562 26.707031 11.300781 27.382812 11.523438 C 28.058594 11.824219 28.808594 12.5 29.183594 13.175781 C 29.558594 13.773438 29.785156 14.675781 29.632812 15.5 C 29.410156 16.476562 28.433594 17.824219 27.609375 18.351562 C 26.933594 18.800781 25.957031 18.875 25.207031 18.726562 C 24.457031 18.574219 23.632812 18.199219 23.109375 17.523438 C 22.582031 16.773438 22.058594 15.125 22.285156 14.148438 C 22.507812 13.101562 23.632812 11.898438 24.609375 11.523438 C 25.582031 11.148438 27.234375 11.449219 28.058594 11.976562 C 28.734375 12.351562 29.257812 13.175781 29.484375 13.851562 C 29.707031 14.601562 29.558594 16.25 29.410156 16.25 C 29.257812 16.324219 28.132812 12.199219 28.285156 12.125 C 28.433594 12.050781 29.484375 13.625 29.632812 14.449219 C 29.785156 15.273438 29.484375 16.324219 29.035156 17.074219 C 28.582031 17.75 27.683594 18.351562 26.933594 18.648438 C 26.332031 18.800781 25.957031 18.875 25.132812 18.648438 C 22.808594 18.050781 16.808594 13.175781 12.757812 11.148438 C 9.007812 9.351562 3.382812 8.300781 1.734375 6.949219 C 1.132812 6.425781 0.984375 6.050781 0.832031 5.449219 C 0.609375 4.699219 0.609375 3.574219 0.910156 2.824219 C 1.285156 2 2.035156 1.25 2.785156 0.875 C 3.535156 0.574219 5.410156 0.726562 5.410156 0.726562 "/></clipPath><clipPath id="c58f197f45"><rect x="0" width="30" y="0" height="19"/></clipPath></defs><g id="0f9755445e"><g clip-rule="nonzero" clip-path="url(#9ccebb7348)"><g clip-rule="nonzero" clip-path="url(#79a2a8d34b)"><g transform="matrix(1,0,0,1,56,43)"><g clip-path="url(#00ab63a21c)"><g clip-rule="nonzero" clip-path="url(#0f1ef65c72)"><g clip-rule="nonzero" clip-path="url(#ac83859e62)"><path style=" stroke:none;fill-rule:nonzero;fill:#ffffff;fill-opacity:1;" d="M 0.539062 0.101562 L 281.734375 0.101562 L 281.734375 266.714844 L 0.539062 266.714844 Z M 0.539062 0.101562 "/></g></g></g></g></g></g><g clip-rule="nonzero" clip-path="url(#d02f787ea4)"><g clip-rule="nonzero" clip-path="url(#965ada9899)"><path style="fill:none;stroke-width:40;stroke-linecap:butt;stroke-linejoin:miter;stroke:#38b6ff;stroke-opacity:1;stroke-miterlimit:4;" d="M 348.445995 106.463124 C 332.925162 71.275624 311.091829 35.911041 275.722037 17.681874 C 272.477245 16.062083 269.044953 14.437083 265.61787 13.171458 C 248.83662 5.775624 231.154328 1.806874 212.93037 1.082916 C 210.404328 0.723541 207.695995 0.358958 204.987662 0.181874 C 187.664745 -1.083751 171.966828 2.525624 157.529328 9.202708 C 131.185578 17.322499 105.560578 30.317291 83.909536 46.374583 C 55.576203 67.666249 32.11787 95.093333 18.044953 127.937083 C 9.74287 147.244374 5.050161 167.457916 2.52412 188.385 C -0.179005 210.04125 -1.621714 232.775625 3.065786 254.0725 C 11.36787 291.244375 42.044953 320.838125 75.425161 336.895416 C 110.435578 353.676666 149.591828 358.72875 187.847037 353.676666 C 228.445995 348.265208 267.060578 332.202708 301.706412 310.551666 C 332.925162 291.062083 363.060579 264.718333 371.722037 227.364166 C 381.284537 185.681875 364.862662 143.999583 348.445995 106.463124 Z M 348.445995 106.463124 " transform="matrix(0.75,0,0,0.75,56.540504,43.101876)"/></g></g><g clip-rule="nonzero" clip-path="url(#b832c6e49a)"><g clip-rule="nonzero" clip-path="url(#b12aa2d598)"><g clip-rule="nonzero" clip-path="url(#f9b724b587)"><g transform="matrix(1,0,0,1,180,211)"><g clip-path="url(#cface91d62)"><g clip-rule="nonzero" clip-path="url(#f195e270e5)"><g clip-rule="nonzero" clip-path="url(#2fe90eca9d)"><g clip-rule="nonzero" clip-path="url(#5aedd405b2)"><path style=" stroke:none;fill-rule:nonzero;fill:#38b6ff;fill-opacity:1;" d="M -5.605469 2.828125 L 15.71875 -0.824219 L 20.605469 27.746094 L -0.714844 31.394531 Z M -5.605469 2.828125 "/></g></g></g></g></g></g></g></g><g style="fill:#38b6ff;fill-opacity:1;"><g transform="translate(127.520202, 179.239479)"><path style="stroke:none" d="M 48.875 -21.75 C 49.320312 -21.75 49.664062 -21.582031 49.90625 -21.25 C 50.144531 -20.914062 50.351562 -20.585938 50.53125 -20.265625 C 50.71875 -19.898438 51.144531 -19.019531 51.8125 -17.625 C 52.488281 -16.238281 53.207031 -14.710938 53.96875 -13.046875 C 54.738281 -11.390625 55.40625 -9.914062 55.96875 -8.625 C 56.539062 -7.332031 56.828125 -6.597656 56.828125 -6.421875 C 56.828125 -6.210938 56.742188 -6.007812 56.578125 -5.8125 C 56.410156 -5.625 56.253906 -5.46875 56.109375 -5.34375 C 54.460938 -4.03125 52.46875 -2.929688 50.125 -2.046875 C 47.789062 -1.160156 45.390625 -0.492188 42.921875 -0.046875 C 40.453125 0.398438 38.171875 0.625 36.078125 0.625 C 29.421875 0.625 23.648438 -0.648438 18.765625 -3.203125 C 13.890625 -5.765625 10.117188 -9.445312 7.453125 -14.25 C 4.785156 -19.0625 3.453125 -24.820312 3.453125 -31.53125 C 3.453125 -37.789062 4.601562 -43.226562 6.90625 -47.84375 C 9.21875 -52.457031 12.597656 -56.03125 17.046875 -58.5625 C 21.492188 -61.09375 26.894531 -62.359375 33.25 -62.359375 C 35.25 -62.359375 37.5 -62.160156 40 -61.765625 C 42.5 -61.378906 44.953125 -60.8125 47.359375 -60.0625 C 49.773438 -59.3125 51.820312 -58.382812 53.5 -57.28125 C 54.101562 -56.882812 54.40625 -56.421875 54.40625 -55.890625 C 54.40625 -55.765625 54.222656 -55.226562 53.859375 -54.28125 C 53.503906 -53.34375 53.054688 -52.195312 52.515625 -50.84375 C 51.972656 -49.5 51.425781 -48.128906 50.875 -46.734375 C 50.320312 -45.347656 49.828125 -44.128906 49.390625 -43.078125 C 48.953125 -42.035156 48.660156 -41.363281 48.515625 -41.0625 C 48.367188 -40.726562 48.1875 -40.421875 47.96875 -40.140625 C 47.757812 -39.859375 47.445312 -39.71875 47.03125 -39.71875 C 46.707031 -39.71875 46.054688 -39.957031 45.078125 -40.4375 C 44.109375 -40.914062 42.957031 -41.394531 41.625 -41.875 C 40.289062 -42.351562 38.921875 -42.59375 37.515625 -42.59375 C 35.265625 -42.59375 33.117188 -42.1875 31.078125 -41.375 C 29.046875 -40.5625 27.394531 -39.335938 26.125 -37.703125 C 24.851562 -36.078125 24.21875 -34.003906 24.21875 -31.484375 C 24.21875 -27.023438 25.539062 -23.867188 28.1875 -22.015625 C 30.84375 -20.160156 34.21875 -19.234375 38.3125 -19.234375 C 39.84375 -19.234375 41.378906 -19.390625 42.921875 -19.703125 C 44.460938 -20.015625 45.921875 -20.515625 47.296875 -21.203125 C 47.597656 -21.347656 47.851562 -21.472656 48.0625 -21.578125 C 48.269531 -21.691406 48.539062 -21.75 48.875 -21.75 Z M 48.875 -21.75 "/></g></g><g style="fill:#38b6ff;fill-opacity:1;"><g transform="translate(187.485809, 179.239479)"><path style="stroke:none" d="M 48.875 -21.75 C 49.320312 -21.75 49.664062 -21.582031 49.90625 -21.25 C 50.144531 -20.914062 50.351562 -20.585938 50.53125 -20.265625 C 50.71875 -19.898438 51.144531 -19.019531 51.8125 -17.625 C 52.488281 -16.238281 53.207031 -14.710938 53.96875 -13.046875 C 54.738281 -11.390625 55.40625 -9.914062 55.96875 -8.625 C 56.539062 -7.332031 56.828125 -6.597656 56.828125 -6.421875 C 56.828125 -6.210938 56.742188 -6.007812 56.578125 -5.8125 C 56.410156 -5.625 56.253906 -5.46875 56.109375 -5.34375 C 54.460938 -4.03125 52.46875 -2.929688 50.125 -2.046875 C 47.789062 -1.160156 45.390625 -0.492188 42.921875 -0.046875 C 40.453125 0.398438 38.171875 0.625 36.078125 0.625 C 29.421875 0.625 23.648438 -0.648438 18.765625 -3.203125 C 13.890625 -5.765625 10.117188 -9.445312 7.453125 -14.25 C 4.785156 -19.0625 3.453125 -24.820312 3.453125 -31.53125 C 3.453125 -37.789062 4.601562 -43.226562 6.90625 -47.84375 C 9.21875 -52.457031 12.597656 -56.03125 17.046875 -58.5625 C 21.492188 -61.09375 26.894531 -62.359375 33.25 -62.359375 C 35.25 -62.359375 37.5 -62.160156 40 -61.765625 C 42.5 -61.378906 44.953125 -60.8125 47.359375 -60.0625 C 49.773438 -59.3125 51.820312 -58.382812 53.5 -57.28125 C 54.101562 -56.882812 54.40625 -56.421875 54.40625 -55.890625 C 54.40625 -55.765625 54.222656 -55.226562 53.859375 -54.28125 C 53.503906 -53.34375 53.054688 -52.195312 52.515625 -50.84375 C 51.972656 -49.5 51.425781 -48.128906 50.875 -46.734375 C 50.320312 -45.347656 49.828125 -44.128906 49.390625 -43.078125 C 48.953125 -42.035156 48.660156 -41.363281 48.515625 -41.0625 C 48.367188 -40.726562 48.1875 -40.421875 47.96875 -40.140625 C 47.757812 -39.859375 47.445312 -39.71875 47.03125 -39.71875 C 46.707031 -39.71875 46.054688 -39.957031 45.078125 -40.4375 C 44.109375 -40.914062 42.957031 -41.394531 41.625 -41.875 C 40.289062 -42.351562 38.921875 -42.59375 37.515625 -42.59375 C 35.265625 -42.59375 33.117188 -42.1875 31.078125 -41.375 C 29.046875 -40.5625 27.394531 -39.335938 26.125 -37.703125 C 24.851562 -36.078125 24.21875 -34.003906 24.21875 -31.484375 C 24.21875 -27.023438 25.539062 -23.867188 28.1875 -22.015625 C 30.84375 -20.160156 34.21875 -19.234375 38.3125 -19.234375 C 39.84375 -19.234375 41.378906 -19.390625 42.921875 -19.703125 C 44.460938 -20.015625 45.921875 -20.515625 47.296875 -21.203125 C 47.597656 -21.347656 47.851562 -21.472656 48.0625 -21.578125 C 48.269531 -21.691406 48.539062 -21.75 48.875 -21.75 Z M 48.875 -21.75 "/></g></g><g clip-rule="nonzero" clip-path="url(#a4ef9a3676)"><g clip-rule="nonzero" clip-path="url(#8c3471c5fb)"><g transform="matrix(1,0,0,1,136,217)"><g clip-path="url(#815476161c)"><g clip-rule="nonzero" clip-path="url(#3d0db92e14)"><g clip-rule="nonzero" clip-path="url(#8f9ddc1256)"><rect x="0" width="26" height="23" y="0" style="fill:#45a3e4;fill-opacity:1;stroke:none;"/></g></g></g></g></g></g><g clip-rule="nonzero" clip-path="url(#bcfee71130)"><g clip-rule="nonzero" clip-path="url(#2a6acd3463)"><g transform="matrix(1,0,0,1,173,210)"><g clip-path="url(#8e21688a52)"><g clip-rule="nonzero" clip-path="url(#2b014f1094)"><g clip-rule="nonzero" clip-path="url(#073dbae924)"><rect x="0" width="25" height="45" y="0" style="fill:#45a3e4;fill-opacity:1;stroke:none;"/></g></g></g></g></g></g><g clip-rule="nonzero" clip-path="url(#39c59f6c2b)"><g clip-rule="nonzero" clip-path="url(#44ab5e61d3)"><g transform="matrix(1,0,0,1,205,216)"><g clip-path="url(#9e3fb8d648)"><g clip-rule="nonzero" clip-path="url(#ccd89da8b5)"><g clip-rule="nonzero" clip-path="url(#b6fea57154)"><rect x="0" width="31" height="37" y="0" style="fill:#45a3e4;fill-opacity:1;stroke:none;"/></g></g></g></g></g></g><g clip-rule="nonzero" clip-path="url(#a693476430)"><g clip-rule="nonzero" clip-path="url(#44b0ce9b49)"><g transform="matrix(1,0,0,1,136,235)"><g clip-path="url(#c58f197f45)"><g clip-rule="nonzero" clip-path="url(#0b7da66add)"><g clip-rule="nonzero" clip-path="url(#33905e9ce7)"><rect x="0" width="30" height="19" y="0" style="fill:#45a3e4;fill-opacity:1;stroke:none;"/></g></g></g></g></g></g></g></svg>